<mxfile host="www.draw.io" modified="2020-01-21T19:46:30.541Z" agent="Mozilla/5.0 (X11; Ubuntu; Linux x86_64; rv:72.0) Gecko/20100101 Firefox/72.0" etag="4hzjOP2ADixzwGNkH4Is" version="12.5.5" type="github">
  <diagram id="gpuUQiAjlzqYfS_z8UTa" name="Page-1">
    <mxGraphModel dx="801" dy="491" grid="1" gridSize="10" guides="1" tooltips="1" connect="1" arrows="1" fold="1" page="1" pageScale="1" pageWidth="850" pageHeight="1100" math="0" shadow="0">
      <root>
        <mxCell id="0"/>
        <mxCell id="1" parent="0"/>
      </root>
    </mxGraphModel>
  </diagram>
</mxfile>
